<mxfile host="app.diagrams.net" agent="Mozilla/5.0 (Macintosh; Intel Mac OS X 10_15_7) AppleWebKit/537.36 (KHTML, like Gecko) Chrome/131.0.0.0 Safari/537.36" version="24.9.1">
  <diagram name="Page-1" id="kLhc2KjDAWlGoQzp7i1l">
    <mxGraphModel dx="4055" dy="1963" grid="1" gridSize="10" guides="1" tooltips="1" connect="1" arrows="1" fold="1" page="1" pageScale="1" pageWidth="850" pageHeight="1100" math="0" shadow="0">
      <root>
        <mxCell id="0" />
        <mxCell id="1" parent="0" />
        <mxCell id="fp4rHpeMfnlgInjq3aHg-1" value="&lt;font style=&quot;font-size: 18px;&quot;&gt;STUDENT&lt;/font&gt;" style="rounded=0;whiteSpace=wrap;html=1;" parent="1" vertex="1">
          <mxGeometry x="-110" y="300" width="120" height="60" as="geometry" />
        </mxCell>
        <mxCell id="fp4rHpeMfnlgInjq3aHg-2" value="&lt;u&gt;&amp;nbsp;&lt;font style=&quot;font-size: 15px;&quot;&gt;student_id&lt;/font&gt;&lt;/u&gt;" style="ellipse;whiteSpace=wrap;html=1;" parent="1" vertex="1">
          <mxGeometry x="-140" y="180" width="110" height="70" as="geometry" />
        </mxCell>
        <mxCell id="fp4rHpeMfnlgInjq3aHg-4" value="" style="endArrow=none;html=1;rounded=0;entryX=0.5;entryY=1;entryDx=0;entryDy=0;exitX=0.46;exitY=-0.002;exitDx=0;exitDy=0;exitPerimeter=0;" parent="1" source="fp4rHpeMfnlgInjq3aHg-1" target="fp4rHpeMfnlgInjq3aHg-2" edge="1">
          <mxGeometry width="50" height="50" relative="1" as="geometry">
            <mxPoint x="-50" y="310" as="sourcePoint" />
            <mxPoint x="10" y="380" as="targetPoint" />
          </mxGeometry>
        </mxCell>
        <mxCell id="fp4rHpeMfnlgInjq3aHg-9" value="&lt;font style=&quot;font-size: 15px;&quot;&gt;student_name&lt;/font&gt;" style="ellipse;whiteSpace=wrap;html=1;" parent="1" vertex="1">
          <mxGeometry x="-50" y="110" width="110" height="70" as="geometry" />
        </mxCell>
        <mxCell id="fp4rHpeMfnlgInjq3aHg-10" value="" style="endArrow=none;html=1;rounded=0;exitX=0.75;exitY=0;exitDx=0;exitDy=0;" parent="1" source="fp4rHpeMfnlgInjq3aHg-1" target="fp4rHpeMfnlgInjq3aHg-9" edge="1">
          <mxGeometry width="50" height="50" relative="1" as="geometry">
            <mxPoint x="65" y="330" as="sourcePoint" />
            <mxPoint x="130" y="400" as="targetPoint" />
          </mxGeometry>
        </mxCell>
        <mxCell id="fp4rHpeMfnlgInjq3aHg-11" value="&lt;font style=&quot;font-size: 15px;&quot;&gt;address&lt;/font&gt;" style="ellipse;whiteSpace=wrap;html=1;" parent="1" vertex="1">
          <mxGeometry x="60" y="290" width="110" height="70" as="geometry" />
        </mxCell>
        <mxCell id="fp4rHpeMfnlgInjq3aHg-12" value="" style="endArrow=none;html=1;rounded=0;entryX=0;entryY=0.5;entryDx=0;entryDy=0;exitX=1;exitY=0.5;exitDx=0;exitDy=0;" parent="1" source="fp4rHpeMfnlgInjq3aHg-1" target="fp4rHpeMfnlgInjq3aHg-11" edge="1">
          <mxGeometry width="50" height="50" relative="1" as="geometry">
            <mxPoint x="135" y="410" as="sourcePoint" />
            <mxPoint x="200" y="480" as="targetPoint" />
          </mxGeometry>
        </mxCell>
        <mxCell id="fp4rHpeMfnlgInjq3aHg-13" value="&amp;nbsp;&lt;font style=&quot;font-size: 15px;&quot;&gt;grade&lt;/font&gt;" style="ellipse;whiteSpace=wrap;html=1;" parent="1" vertex="1">
          <mxGeometry y="380" width="110" height="70" as="geometry" />
        </mxCell>
        <mxCell id="fp4rHpeMfnlgInjq3aHg-14" value="" style="endArrow=none;html=1;rounded=0;entryX=0.5;entryY=0;entryDx=0;entryDy=0;exitX=1.003;exitY=0.939;exitDx=0;exitDy=0;exitPerimeter=0;" parent="1" source="fp4rHpeMfnlgInjq3aHg-1" target="fp4rHpeMfnlgInjq3aHg-13" edge="1">
          <mxGeometry width="50" height="50" relative="1" as="geometry">
            <mxPoint x="55" y="500" as="sourcePoint" />
            <mxPoint x="120" y="570" as="targetPoint" />
          </mxGeometry>
        </mxCell>
        <mxCell id="fp4rHpeMfnlgInjq3aHg-15" value="&amp;nbsp;&lt;font style=&quot;font-size: 15px;&quot;&gt;student_&lt;/font&gt;&lt;div&gt;&lt;font style=&quot;font-size: 15px;&quot;&gt;gender&lt;/font&gt;&lt;/div&gt;" style="ellipse;whiteSpace=wrap;html=1;" parent="1" vertex="1">
          <mxGeometry x="-220" y="400" width="110" height="70" as="geometry" />
        </mxCell>
        <mxCell id="fp4rHpeMfnlgInjq3aHg-16" value="" style="endArrow=none;html=1;rounded=0;entryX=0.5;entryY=0;entryDx=0;entryDy=0;exitX=0.362;exitY=1.006;exitDx=0;exitDy=0;exitPerimeter=0;" parent="1" source="fp4rHpeMfnlgInjq3aHg-1" target="fp4rHpeMfnlgInjq3aHg-15" edge="1">
          <mxGeometry width="50" height="50" relative="1" as="geometry">
            <mxPoint x="-75" y="520" as="sourcePoint" />
            <mxPoint x="-10" y="590" as="targetPoint" />
          </mxGeometry>
        </mxCell>
        <mxCell id="fp4rHpeMfnlgInjq3aHg-17" value="&amp;nbsp;&lt;font style=&quot;font-size: 15px;&quot;&gt;student_type&lt;/font&gt;" style="ellipse;whiteSpace=wrap;html=1;" parent="1" vertex="1">
          <mxGeometry x="-287.5" y="320" width="110" height="70" as="geometry" />
        </mxCell>
        <mxCell id="fp4rHpeMfnlgInjq3aHg-18" value="" style="endArrow=none;html=1;rounded=0;entryX=1;entryY=0.5;entryDx=0;entryDy=0;exitX=0.001;exitY=0.682;exitDx=0;exitDy=0;exitPerimeter=0;" parent="1" source="fp4rHpeMfnlgInjq3aHg-1" target="fp4rHpeMfnlgInjq3aHg-17" edge="1">
          <mxGeometry width="50" height="50" relative="1" as="geometry">
            <mxPoint x="-175" y="460" as="sourcePoint" />
            <mxPoint x="-110" y="530" as="targetPoint" />
          </mxGeometry>
        </mxCell>
        <mxCell id="fp4rHpeMfnlgInjq3aHg-19" value="&amp;nbsp;&lt;font style=&quot;font-size: 15px;&quot;&gt;student_&lt;/font&gt;&lt;div&gt;&lt;font style=&quot;font-size: 15px;&quot;&gt;status&lt;/font&gt;&lt;/div&gt;" style="ellipse;whiteSpace=wrap;html=1;" parent="1" vertex="1">
          <mxGeometry x="-250" y="250" width="110" height="70" as="geometry" />
        </mxCell>
        <mxCell id="fp4rHpeMfnlgInjq3aHg-20" value="" style="endArrow=none;html=1;rounded=0;entryX=1;entryY=0.5;entryDx=0;entryDy=0;exitX=0;exitY=0.25;exitDx=0;exitDy=0;" parent="1" source="fp4rHpeMfnlgInjq3aHg-1" target="fp4rHpeMfnlgInjq3aHg-19" edge="1">
          <mxGeometry width="50" height="50" relative="1" as="geometry">
            <mxPoint x="-185" y="360" as="sourcePoint" />
            <mxPoint x="-120" y="430" as="targetPoint" />
          </mxGeometry>
        </mxCell>
        <mxCell id="fp4rHpeMfnlgInjq3aHg-23" value="&lt;font style=&quot;font-size: 16px;&quot;&gt;STUDENT_&lt;/font&gt;&lt;div&gt;&lt;font style=&quot;font-size: 16px;&quot;&gt;REQUIREMENT&lt;/font&gt;&lt;/div&gt;" style="rounded=0;whiteSpace=wrap;html=1;" parent="1" vertex="1">
          <mxGeometry x="-110" y="696" width="130" height="60" as="geometry" />
        </mxCell>
        <mxCell id="fp4rHpeMfnlgInjq3aHg-24" value="&lt;font style=&quot;font-size: 15px;&quot;&gt;ttr_gender&lt;/font&gt;" style="ellipse;whiteSpace=wrap;html=1;" parent="1" vertex="1">
          <mxGeometry x="-155" y="576" width="110" height="70" as="geometry" />
        </mxCell>
        <mxCell id="fp4rHpeMfnlgInjq3aHg-25" value="" style="endArrow=none;html=1;rounded=0;entryX=0.5;entryY=1;entryDx=0;entryDy=0;exitX=0.46;exitY=-0.002;exitDx=0;exitDy=0;exitPerimeter=0;" parent="1" source="fp4rHpeMfnlgInjq3aHg-23" target="fp4rHpeMfnlgInjq3aHg-24" edge="1">
          <mxGeometry width="50" height="50" relative="1" as="geometry">
            <mxPoint x="-40" y="706" as="sourcePoint" />
            <mxPoint x="20" y="776" as="targetPoint" />
          </mxGeometry>
        </mxCell>
        <mxCell id="fp4rHpeMfnlgInjq3aHg-26" value="&lt;font style=&quot;font-size: 15px;&quot;&gt;time&lt;/font&gt;" style="ellipse;whiteSpace=wrap;html=1;" parent="1" vertex="1">
          <mxGeometry x="20" y="606" width="110" height="70" as="geometry" />
        </mxCell>
        <mxCell id="fp4rHpeMfnlgInjq3aHg-27" value="" style="endArrow=none;html=1;rounded=0;entryX=0.5;entryY=1;entryDx=0;entryDy=0;exitX=0.75;exitY=0;exitDx=0;exitDy=0;" parent="1" source="fp4rHpeMfnlgInjq3aHg-23" target="fp4rHpeMfnlgInjq3aHg-26" edge="1">
          <mxGeometry width="50" height="50" relative="1" as="geometry">
            <mxPoint x="75" y="726" as="sourcePoint" />
            <mxPoint x="140" y="796" as="targetPoint" />
          </mxGeometry>
        </mxCell>
        <mxCell id="fp4rHpeMfnlgInjq3aHg-28" value="&lt;font style=&quot;font-size: 15px;&quot;&gt;online&lt;/font&gt;" style="ellipse;whiteSpace=wrap;html=1;" parent="1" vertex="1">
          <mxGeometry x="70" y="686" width="110" height="70" as="geometry" />
        </mxCell>
        <mxCell id="fp4rHpeMfnlgInjq3aHg-29" value="" style="endArrow=none;html=1;rounded=0;entryX=0;entryY=0.5;entryDx=0;entryDy=0;exitX=1;exitY=0.5;exitDx=0;exitDy=0;" parent="1" source="fp4rHpeMfnlgInjq3aHg-23" target="fp4rHpeMfnlgInjq3aHg-28" edge="1">
          <mxGeometry width="50" height="50" relative="1" as="geometry">
            <mxPoint x="145" y="806" as="sourcePoint" />
            <mxPoint x="210" y="876" as="targetPoint" />
          </mxGeometry>
        </mxCell>
        <mxCell id="fp4rHpeMfnlgInjq3aHg-30" value="&amp;nbsp;&lt;font style=&quot;font-size: 15px;&quot;&gt;offline&lt;/font&gt;" style="ellipse;whiteSpace=wrap;html=1;" parent="1" vertex="1">
          <mxGeometry x="10" y="776" width="110" height="70" as="geometry" />
        </mxCell>
        <mxCell id="fp4rHpeMfnlgInjq3aHg-31" value="" style="endArrow=none;html=1;rounded=0;entryX=0.5;entryY=0;entryDx=0;entryDy=0;exitX=1.003;exitY=0.939;exitDx=0;exitDy=0;exitPerimeter=0;" parent="1" source="fp4rHpeMfnlgInjq3aHg-23" target="fp4rHpeMfnlgInjq3aHg-30" edge="1">
          <mxGeometry width="50" height="50" relative="1" as="geometry">
            <mxPoint x="65" y="896" as="sourcePoint" />
            <mxPoint x="130" y="966" as="targetPoint" />
          </mxGeometry>
        </mxCell>
        <mxCell id="fp4rHpeMfnlgInjq3aHg-32" value="&amp;nbsp;&lt;span style=&quot;font-size: 15px; background-color: initial;&quot;&gt;salary&lt;/span&gt;" style="ellipse;whiteSpace=wrap;html=1;" parent="1" vertex="1">
          <mxGeometry x="-120" y="796" width="110" height="70" as="geometry" />
        </mxCell>
        <mxCell id="fp4rHpeMfnlgInjq3aHg-33" value="" style="endArrow=none;html=1;rounded=0;entryX=0.5;entryY=0;entryDx=0;entryDy=0;exitX=0.362;exitY=1.006;exitDx=0;exitDy=0;exitPerimeter=0;" parent="1" source="fp4rHpeMfnlgInjq3aHg-23" target="fp4rHpeMfnlgInjq3aHg-32" edge="1">
          <mxGeometry width="50" height="50" relative="1" as="geometry">
            <mxPoint x="-65" y="916" as="sourcePoint" />
            <mxPoint y="986" as="targetPoint" />
          </mxGeometry>
        </mxCell>
        <mxCell id="fp4rHpeMfnlgInjq3aHg-34" value="&lt;font style=&quot;font-size: 15px;&quot;&gt;teacher_type&lt;/font&gt;" style="ellipse;whiteSpace=wrap;html=1;" parent="1" vertex="1">
          <mxGeometry x="-295" y="723" width="110" height="70" as="geometry" />
        </mxCell>
        <mxCell id="fp4rHpeMfnlgInjq3aHg-35" value="" style="endArrow=none;html=1;rounded=0;entryX=1;entryY=0.5;entryDx=0;entryDy=0;exitX=0.001;exitY=0.682;exitDx=0;exitDy=0;exitPerimeter=0;" parent="1" source="fp4rHpeMfnlgInjq3aHg-23" target="fp4rHpeMfnlgInjq3aHg-34" edge="1">
          <mxGeometry width="50" height="50" relative="1" as="geometry">
            <mxPoint x="-165" y="856" as="sourcePoint" />
            <mxPoint x="-100" y="926" as="targetPoint" />
          </mxGeometry>
        </mxCell>
        <mxCell id="fp4rHpeMfnlgInjq3aHg-36" value="&amp;nbsp;&lt;font style=&quot;font-size: 15px;&quot;&gt;subject_grade&lt;/font&gt;" style="ellipse;whiteSpace=wrap;html=1;" parent="1" vertex="1">
          <mxGeometry x="-240" y="646" width="110" height="70" as="geometry" />
        </mxCell>
        <mxCell id="fp4rHpeMfnlgInjq3aHg-37" value="" style="endArrow=none;html=1;rounded=0;entryX=1;entryY=0.5;entryDx=0;entryDy=0;exitX=0;exitY=0.25;exitDx=0;exitDy=0;" parent="1" source="fp4rHpeMfnlgInjq3aHg-23" target="fp4rHpeMfnlgInjq3aHg-36" edge="1">
          <mxGeometry width="50" height="50" relative="1" as="geometry">
            <mxPoint x="-175" y="756" as="sourcePoint" />
            <mxPoint x="-110" y="826" as="targetPoint" />
          </mxGeometry>
        </mxCell>
        <mxCell id="fp4rHpeMfnlgInjq3aHg-38" value="&lt;font style=&quot;font-size: 15px;&quot;&gt;min_salary&lt;/font&gt;" style="ellipse;whiteSpace=wrap;html=1;" parent="1" vertex="1">
          <mxGeometry x="-45" y="880" width="110" height="70" as="geometry" />
        </mxCell>
        <mxCell id="fp4rHpeMfnlgInjq3aHg-39" value="" style="endArrow=none;html=1;rounded=0;entryX=0.5;entryY=0;entryDx=0;entryDy=0;exitX=1;exitY=1;exitDx=0;exitDy=0;" parent="1" source="fp4rHpeMfnlgInjq3aHg-32" target="fp4rHpeMfnlgInjq3aHg-38" edge="1">
          <mxGeometry width="50" height="50" relative="1" as="geometry">
            <mxPoint x="-35" y="856" as="sourcePoint" />
            <mxPoint x="75" y="1070" as="targetPoint" />
          </mxGeometry>
        </mxCell>
        <mxCell id="fp4rHpeMfnlgInjq3aHg-40" value="&amp;nbsp;&lt;font style=&quot;font-size: 15px;&quot;&gt;max_salary&lt;/font&gt;" style="ellipse;whiteSpace=wrap;html=1;" parent="1" vertex="1">
          <mxGeometry x="-175" y="880" width="110" height="70" as="geometry" />
        </mxCell>
        <mxCell id="fp4rHpeMfnlgInjq3aHg-41" value="" style="endArrow=none;html=1;rounded=0;entryX=0.5;entryY=0;entryDx=0;entryDy=0;exitX=0;exitY=1;exitDx=0;exitDy=0;" parent="1" source="fp4rHpeMfnlgInjq3aHg-32" target="fp4rHpeMfnlgInjq3aHg-40" edge="1">
          <mxGeometry width="50" height="50" relative="1" as="geometry">
            <mxPoint x="-112" y="860" as="sourcePoint" />
            <mxPoint x="-55" y="1090" as="targetPoint" />
          </mxGeometry>
        </mxCell>
        <mxCell id="fp4rHpeMfnlgInjq3aHg-42" value="" style="verticalLabelPosition=bottom;verticalAlign=top;html=1;shape=mxgraph.basic.frame;dx=10;whiteSpace=wrap;" parent="1" vertex="1">
          <mxGeometry x="-430" y="90" width="100" height="60" as="geometry" />
        </mxCell>
        <mxCell id="fp4rHpeMfnlgInjq3aHg-43" value="PARENT" style="text;html=1;align=center;verticalAlign=middle;resizable=0;points=[];autosize=1;strokeColor=none;fillColor=none;" parent="1" vertex="1">
          <mxGeometry x="-415" y="105" width="70" height="30" as="geometry" />
        </mxCell>
        <mxCell id="fp4rHpeMfnlgInjq3aHg-44" value="&amp;nbsp;&lt;font style=&quot;font-size: 15px;&quot;&gt;parent_name&lt;/font&gt;" style="ellipse;whiteSpace=wrap;html=1;" parent="1" vertex="1">
          <mxGeometry x="-440" y="10" width="110" height="70" as="geometry" />
        </mxCell>
        <mxCell id="fp4rHpeMfnlgInjq3aHg-45" value="" style="endArrow=none;html=1;rounded=0;entryX=0.5;entryY=1;entryDx=0;entryDy=0;exitX=0.45;exitY=-0.008;exitDx=0;exitDy=0;exitPerimeter=0;" parent="1" source="fp4rHpeMfnlgInjq3aHg-42" target="fp4rHpeMfnlgInjq3aHg-44" edge="1">
          <mxGeometry width="50" height="50" relative="1" as="geometry">
            <mxPoint x="-345" y="120" as="sourcePoint" />
            <mxPoint x="-280" y="200" as="targetPoint" />
          </mxGeometry>
        </mxCell>
        <mxCell id="fp4rHpeMfnlgInjq3aHg-46" value="&lt;font style=&quot;font-size: 15px;&quot;&gt;parent_tel&lt;/font&gt;" style="ellipse;whiteSpace=wrap;html=1;" parent="1" vertex="1">
          <mxGeometry x="-310" y="35" width="110" height="70" as="geometry" />
        </mxCell>
        <mxCell id="fp4rHpeMfnlgInjq3aHg-47" value="" style="endArrow=none;html=1;rounded=0;entryX=0.5;entryY=1;entryDx=0;entryDy=0;exitX=1;exitY=0.5;exitDx=0;exitDy=0;exitPerimeter=0;" parent="1" source="fp4rHpeMfnlgInjq3aHg-42" target="fp4rHpeMfnlgInjq3aHg-46" edge="1">
          <mxGeometry width="50" height="50" relative="1" as="geometry">
            <mxPoint x="-310" y="120" as="sourcePoint" />
            <mxPoint x="-160" y="220" as="targetPoint" />
          </mxGeometry>
        </mxCell>
        <mxCell id="fp4rHpeMfnlgInjq3aHg-48" value="depend" style="rhombus;whiteSpace=wrap;html=1;" parent="1" vertex="1">
          <mxGeometry x="-272.5" y="180" width="80" height="40" as="geometry" />
        </mxCell>
        <mxCell id="fp4rHpeMfnlgInjq3aHg-49" value="" style="rhombus;whiteSpace=wrap;html=1;fillColor=none;" parent="1" vertex="1">
          <mxGeometry x="-280" y="175" width="95" height="50" as="geometry" />
        </mxCell>
        <mxCell id="fp4rHpeMfnlgInjq3aHg-50" value="" style="endArrow=none;html=1;rounded=0;entryX=0;entryY=0.5;entryDx=0;entryDy=0;exitX=1;exitY=1;exitDx=0;exitDy=0;exitPerimeter=0;" parent="1" source="fp4rHpeMfnlgInjq3aHg-42" target="fp4rHpeMfnlgInjq3aHg-49" edge="1">
          <mxGeometry width="50" height="50" relative="1" as="geometry">
            <mxPoint x="-320" y="130" as="sourcePoint" />
            <mxPoint x="-245" y="115" as="targetPoint" />
          </mxGeometry>
        </mxCell>
        <mxCell id="fp4rHpeMfnlgInjq3aHg-51" value="" style="shape=link;html=1;rounded=0;entryX=0;entryY=0;entryDx=0;entryDy=0;exitX=1;exitY=0.5;exitDx=0;exitDy=0;" parent="1" source="fp4rHpeMfnlgInjq3aHg-49" target="fp4rHpeMfnlgInjq3aHg-1" edge="1">
          <mxGeometry relative="1" as="geometry">
            <mxPoint x="-185" y="199.6" as="sourcePoint" />
            <mxPoint x="-25" y="199.6" as="targetPoint" />
          </mxGeometry>
        </mxCell>
        <mxCell id="fp4rHpeMfnlgInjq3aHg-52" value="1" style="resizable=0;html=1;whiteSpace=wrap;align=right;verticalAlign=bottom;" parent="fp4rHpeMfnlgInjq3aHg-51" connectable="0" vertex="1">
          <mxGeometry x="1" relative="1" as="geometry">
            <mxPoint y="-15" as="offset" />
          </mxGeometry>
        </mxCell>
        <mxCell id="fp4rHpeMfnlgInjq3aHg-53" value="1" style="resizable=0;html=1;whiteSpace=wrap;align=right;verticalAlign=bottom;" parent="1" connectable="0" vertex="1">
          <mxGeometry x="-299.99956521739125" y="175.00391304347835" as="geometry" />
        </mxCell>
        <mxCell id="fp4rHpeMfnlgInjq3aHg-54" value="&lt;font style=&quot;font-size: 18px;&quot;&gt;MENTOR&lt;/font&gt;" style="rounded=0;whiteSpace=wrap;html=1;" parent="1" vertex="1">
          <mxGeometry x="180" y="115" width="120" height="60" as="geometry" />
        </mxCell>
        <mxCell id="fp4rHpeMfnlgInjq3aHg-55" value="&lt;u&gt;&amp;nbsp;&lt;font style=&quot;font-size: 15px;&quot;&gt;mentor_id&lt;/font&gt;&lt;/u&gt;" style="ellipse;whiteSpace=wrap;html=1;" parent="1" vertex="1">
          <mxGeometry x="180" y="5" width="110" height="70" as="geometry" />
        </mxCell>
        <mxCell id="fp4rHpeMfnlgInjq3aHg-56" value="" style="endArrow=none;html=1;rounded=0;entryX=0.5;entryY=1;entryDx=0;entryDy=0;exitX=0.46;exitY=-0.002;exitDx=0;exitDy=0;exitPerimeter=0;" parent="1" source="fp4rHpeMfnlgInjq3aHg-54" target="fp4rHpeMfnlgInjq3aHg-55" edge="1">
          <mxGeometry width="50" height="50" relative="1" as="geometry">
            <mxPoint x="240" y="125" as="sourcePoint" />
            <mxPoint x="300" y="195" as="targetPoint" />
          </mxGeometry>
        </mxCell>
        <mxCell id="fp4rHpeMfnlgInjq3aHg-57" value="&lt;font style=&quot;font-size: 15px;&quot;&gt;mentor_name&lt;/font&gt;" style="ellipse;whiteSpace=wrap;html=1;" parent="1" vertex="1">
          <mxGeometry x="300" y="25" width="110" height="70" as="geometry" />
        </mxCell>
        <mxCell id="fp4rHpeMfnlgInjq3aHg-58" value="" style="endArrow=none;html=1;rounded=0;entryX=0.5;entryY=1;entryDx=0;entryDy=0;exitX=0.75;exitY=0;exitDx=0;exitDy=0;" parent="1" source="fp4rHpeMfnlgInjq3aHg-54" target="fp4rHpeMfnlgInjq3aHg-57" edge="1">
          <mxGeometry width="50" height="50" relative="1" as="geometry">
            <mxPoint x="355" y="145" as="sourcePoint" />
            <mxPoint x="420" y="215" as="targetPoint" />
          </mxGeometry>
        </mxCell>
        <mxCell id="fp4rHpeMfnlgInjq3aHg-63" value="Have" style="rhombus;whiteSpace=wrap;html=1;" parent="1" vertex="1">
          <mxGeometry x="40" y="210" width="100" height="50" as="geometry" />
        </mxCell>
        <mxCell id="fp4rHpeMfnlgInjq3aHg-64" value="" style="shape=link;html=1;rounded=0;exitX=1;exitY=0;exitDx=0;exitDy=0;entryX=0;entryY=0.5;entryDx=0;entryDy=0;" parent="1" source="fp4rHpeMfnlgInjq3aHg-1" target="fp4rHpeMfnlgInjq3aHg-63" edge="1">
          <mxGeometry relative="1" as="geometry">
            <mxPoint x="20" y="270" as="sourcePoint" />
            <mxPoint x="180" y="270" as="targetPoint" />
          </mxGeometry>
        </mxCell>
        <mxCell id="fp4rHpeMfnlgInjq3aHg-65" value="1" style="resizable=0;html=1;whiteSpace=wrap;align=right;verticalAlign=bottom;" parent="fp4rHpeMfnlgInjq3aHg-64" connectable="0" vertex="1">
          <mxGeometry x="1" relative="1" as="geometry">
            <mxPoint x="-20" y="25" as="offset" />
          </mxGeometry>
        </mxCell>
        <mxCell id="fp4rHpeMfnlgInjq3aHg-66" value="" style="endArrow=none;html=1;rounded=0;entryX=0;entryY=1;entryDx=0;entryDy=0;exitX=1;exitY=0.5;exitDx=0;exitDy=0;" parent="1" source="fp4rHpeMfnlgInjq3aHg-63" target="fp4rHpeMfnlgInjq3aHg-54" edge="1">
          <mxGeometry width="50" height="50" relative="1" as="geometry">
            <mxPoint x="140" y="230" as="sourcePoint" />
            <mxPoint x="225" y="210" as="targetPoint" />
          </mxGeometry>
        </mxCell>
        <mxCell id="fp4rHpeMfnlgInjq3aHg-67" value="1" style="resizable=0;html=1;whiteSpace=wrap;align=right;verticalAlign=bottom;" parent="1" connectable="0" vertex="1">
          <mxGeometry x="159.999972708551" y="199.99839246480633" as="geometry" />
        </mxCell>
        <mxCell id="fp4rHpeMfnlgInjq3aHg-68" value="&lt;font style=&quot;font-size: 16px;&quot;&gt;AUDIT&lt;/font&gt;" style="rounded=0;whiteSpace=wrap;html=1;" parent="1" vertex="1">
          <mxGeometry x="-650" y="370" width="130" height="60" as="geometry" />
        </mxCell>
        <mxCell id="fp4rHpeMfnlgInjq3aHg-69" value="&lt;font style=&quot;font-size: 15px;&quot;&gt;&lt;u&gt;audit_id&lt;/u&gt;&lt;/font&gt;" style="ellipse;whiteSpace=wrap;html=1;" parent="1" vertex="1">
          <mxGeometry x="-600" y="250" width="110" height="70" as="geometry" />
        </mxCell>
        <mxCell id="fp4rHpeMfnlgInjq3aHg-70" value="" style="endArrow=none;html=1;rounded=0;entryX=0.5;entryY=1;entryDx=0;entryDy=0;exitX=0.685;exitY=0;exitDx=0;exitDy=0;exitPerimeter=0;" parent="1" source="fp4rHpeMfnlgInjq3aHg-68" target="fp4rHpeMfnlgInjq3aHg-69" edge="1">
          <mxGeometry width="50" height="50" relative="1" as="geometry">
            <mxPoint x="-580" y="380" as="sourcePoint" />
            <mxPoint x="-520" y="450" as="targetPoint" />
          </mxGeometry>
        </mxCell>
        <mxCell id="fp4rHpeMfnlgInjq3aHg-71" value="&lt;font style=&quot;font-size: 15px;&quot;&gt;tel&lt;/font&gt;" style="ellipse;whiteSpace=wrap;html=1;" parent="1" vertex="1">
          <mxGeometry x="-470" y="290" width="110" height="70" as="geometry" />
        </mxCell>
        <mxCell id="fp4rHpeMfnlgInjq3aHg-72" value="" style="endArrow=none;html=1;rounded=0;entryX=0;entryY=0.5;entryDx=0;entryDy=0;exitX=1;exitY=0;exitDx=0;exitDy=0;" parent="1" source="fp4rHpeMfnlgInjq3aHg-68" target="fp4rHpeMfnlgInjq3aHg-71" edge="1">
          <mxGeometry width="50" height="50" relative="1" as="geometry">
            <mxPoint x="-465" y="400" as="sourcePoint" />
            <mxPoint x="-400" y="470" as="targetPoint" />
          </mxGeometry>
        </mxCell>
        <mxCell id="fp4rHpeMfnlgInjq3aHg-73" value="&lt;font style=&quot;font-size: 15px;&quot;&gt;date&lt;/font&gt;" style="ellipse;whiteSpace=wrap;html=1;" parent="1" vertex="1">
          <mxGeometry x="-440" y="410" width="110" height="70" as="geometry" />
        </mxCell>
        <mxCell id="fp4rHpeMfnlgInjq3aHg-74" value="" style="endArrow=none;html=1;rounded=0;entryX=0;entryY=0.5;entryDx=0;entryDy=0;exitX=1;exitY=0.5;exitDx=0;exitDy=0;" parent="1" source="fp4rHpeMfnlgInjq3aHg-68" target="fp4rHpeMfnlgInjq3aHg-73" edge="1">
          <mxGeometry width="50" height="50" relative="1" as="geometry">
            <mxPoint x="-395" y="480" as="sourcePoint" />
            <mxPoint x="-330" y="550" as="targetPoint" />
          </mxGeometry>
        </mxCell>
        <mxCell id="fp4rHpeMfnlgInjq3aHg-75" value="&lt;font style=&quot;font-size: 15px;&quot;&gt;audit_name&lt;/font&gt;" style="ellipse;whiteSpace=wrap;html=1;" parent="1" vertex="1">
          <mxGeometry x="-540" y="480" width="110" height="70" as="geometry" />
        </mxCell>
        <mxCell id="fp4rHpeMfnlgInjq3aHg-76" value="" style="endArrow=none;html=1;rounded=0;entryX=0.5;entryY=0;entryDx=0;entryDy=0;exitX=1.003;exitY=0.939;exitDx=0;exitDy=0;exitPerimeter=0;" parent="1" source="fp4rHpeMfnlgInjq3aHg-68" target="fp4rHpeMfnlgInjq3aHg-75" edge="1">
          <mxGeometry width="50" height="50" relative="1" as="geometry">
            <mxPoint x="-475" y="570" as="sourcePoint" />
            <mxPoint x="-410" y="640" as="targetPoint" />
          </mxGeometry>
        </mxCell>
        <mxCell id="fp4rHpeMfnlgInjq3aHg-77" value="&lt;font style=&quot;font-size: 15px;&quot;&gt;address&lt;/font&gt;" style="ellipse;whiteSpace=wrap;html=1;" parent="1" vertex="1">
          <mxGeometry x="-700" y="510" width="110" height="70" as="geometry" />
        </mxCell>
        <mxCell id="fp4rHpeMfnlgInjq3aHg-78" value="" style="endArrow=none;html=1;rounded=0;entryX=0.5;entryY=0;entryDx=0;entryDy=0;exitX=0.25;exitY=1;exitDx=0;exitDy=0;" parent="1" source="fp4rHpeMfnlgInjq3aHg-68" target="fp4rHpeMfnlgInjq3aHg-77" edge="1">
          <mxGeometry width="50" height="50" relative="1" as="geometry">
            <mxPoint x="-605" y="590" as="sourcePoint" />
            <mxPoint x="-540" y="660" as="targetPoint" />
          </mxGeometry>
        </mxCell>
        <mxCell id="fp4rHpeMfnlgInjq3aHg-79" value="&lt;font style=&quot;font-size: 15px;&quot;&gt;grade&lt;/font&gt;" style="ellipse;whiteSpace=wrap;html=1;" parent="1" vertex="1">
          <mxGeometry x="-800" y="430" width="110" height="70" as="geometry" />
        </mxCell>
        <mxCell id="fp4rHpeMfnlgInjq3aHg-80" value="" style="endArrow=none;html=1;rounded=0;entryX=1;entryY=0.5;entryDx=0;entryDy=0;exitX=0.001;exitY=0.682;exitDx=0;exitDy=0;exitPerimeter=0;" parent="1" source="fp4rHpeMfnlgInjq3aHg-68" target="fp4rHpeMfnlgInjq3aHg-79" edge="1">
          <mxGeometry width="50" height="50" relative="1" as="geometry">
            <mxPoint x="-705" y="530" as="sourcePoint" />
            <mxPoint x="-640" y="600" as="targetPoint" />
          </mxGeometry>
        </mxCell>
        <mxCell id="fp4rHpeMfnlgInjq3aHg-81" value="&amp;nbsp;&lt;font style=&quot;font-size: 15px;&quot;&gt;status&lt;/font&gt;" style="ellipse;whiteSpace=wrap;html=1;" parent="1" vertex="1">
          <mxGeometry x="-854" y="350" width="110" height="70" as="geometry" />
        </mxCell>
        <mxCell id="fp4rHpeMfnlgInjq3aHg-82" value="" style="endArrow=none;html=1;rounded=0;entryX=0.978;entryY=0.493;entryDx=0;entryDy=0;exitX=0;exitY=0.25;exitDx=0;exitDy=0;entryPerimeter=0;" parent="1" source="fp4rHpeMfnlgInjq3aHg-68" target="fp4rHpeMfnlgInjq3aHg-81" edge="1">
          <mxGeometry width="50" height="50" relative="1" as="geometry">
            <mxPoint x="-715" y="430" as="sourcePoint" />
            <mxPoint x="-740" y="385" as="targetPoint" />
          </mxGeometry>
        </mxCell>
        <mxCell id="fp4rHpeMfnlgInjq3aHg-88" value="&lt;span style=&quot;font-size: 15px;&quot;&gt;audit_type&lt;/span&gt;" style="ellipse;whiteSpace=wrap;html=1;" parent="1" vertex="1">
          <mxGeometry x="-820" y="250" width="110" height="70" as="geometry" />
        </mxCell>
        <mxCell id="fp4rHpeMfnlgInjq3aHg-89" value="" style="endArrow=none;html=1;rounded=0;entryX=0.5;entryY=1;entryDx=0;entryDy=0;exitX=0;exitY=0;exitDx=0;exitDy=0;" parent="1" source="fp4rHpeMfnlgInjq3aHg-68" target="fp4rHpeMfnlgInjq3aHg-88" edge="1">
          <mxGeometry width="50" height="50" relative="1" as="geometry">
            <mxPoint x="-761" y="360" as="sourcePoint" />
            <mxPoint x="-720" y="440" as="targetPoint" />
          </mxGeometry>
        </mxCell>
        <mxCell id="fp4rHpeMfnlgInjq3aHg-90" value="&lt;font style=&quot;font-size: 15px;&quot;&gt;recommender&lt;/font&gt;" style="ellipse;whiteSpace=wrap;html=1;" parent="1" vertex="1">
          <mxGeometry x="-710" y="220" width="110" height="70" as="geometry" />
        </mxCell>
        <mxCell id="fp4rHpeMfnlgInjq3aHg-91" value="" style="endArrow=none;html=1;rounded=0;entryX=0.5;entryY=1;entryDx=0;entryDy=0;exitX=0.308;exitY=0;exitDx=0;exitDy=0;exitPerimeter=0;" parent="1" source="fp4rHpeMfnlgInjq3aHg-68" target="fp4rHpeMfnlgInjq3aHg-90" edge="1">
          <mxGeometry width="50" height="50" relative="1" as="geometry">
            <mxPoint x="-720" y="360" as="sourcePoint" />
            <mxPoint x="-600" y="460" as="targetPoint" />
          </mxGeometry>
        </mxCell>
        <mxCell id="fp4rHpeMfnlgInjq3aHg-92" value="&lt;font style=&quot;font-size: 15px;&quot;&gt;audit_gender&lt;/font&gt;" style="ellipse;whiteSpace=wrap;html=1;" parent="1" vertex="1">
          <mxGeometry x="-610" y="559" width="110" height="70" as="geometry" />
        </mxCell>
        <mxCell id="fp4rHpeMfnlgInjq3aHg-93" value="" style="endArrow=none;html=1;rounded=0;entryX=0.5;entryY=0;entryDx=0;entryDy=0;exitX=0.591;exitY=0.991;exitDx=0;exitDy=0;exitPerimeter=0;" parent="1" source="fp4rHpeMfnlgInjq3aHg-68" target="fp4rHpeMfnlgInjq3aHg-92" edge="1">
          <mxGeometry width="50" height="50" relative="1" as="geometry">
            <mxPoint x="-528" y="479" as="sourcePoint" />
            <mxPoint x="-450" y="709" as="targetPoint" />
          </mxGeometry>
        </mxCell>
        <mxCell id="fp4rHpeMfnlgInjq3aHg-115" value="" style="verticalLabelPosition=bottom;verticalAlign=top;html=1;shape=mxgraph.basic.frame;dx=10;whiteSpace=wrap;" parent="1" vertex="1">
          <mxGeometry x="-120" y="1086" width="120" height="70" as="geometry" />
        </mxCell>
        <mxCell id="fp4rHpeMfnlgInjq3aHg-116" value="ALLOCATION" style="text;html=1;align=center;verticalAlign=middle;resizable=0;points=[];autosize=1;strokeColor=none;fillColor=none;" parent="1" vertex="1">
          <mxGeometry x="-110" y="1106" width="100" height="30" as="geometry" />
        </mxCell>
        <mxCell id="fp4rHpeMfnlgInjq3aHg-117" value="&lt;font style=&quot;font-size: 15px;&quot;&gt;online&lt;/font&gt;" style="ellipse;whiteSpace=wrap;html=1;" parent="1" vertex="1">
          <mxGeometry x="-120" y="1006" width="110" height="70" as="geometry" />
        </mxCell>
        <mxCell id="fp4rHpeMfnlgInjq3aHg-118" value="" style="endArrow=none;html=1;rounded=0;entryX=0.5;entryY=1;entryDx=0;entryDy=0;exitX=0.45;exitY=-0.008;exitDx=0;exitDy=0;exitPerimeter=0;" parent="1" source="fp4rHpeMfnlgInjq3aHg-115" target="fp4rHpeMfnlgInjq3aHg-117" edge="1">
          <mxGeometry width="50" height="50" relative="1" as="geometry">
            <mxPoint x="-15" y="1116" as="sourcePoint" />
            <mxPoint x="50" y="1196" as="targetPoint" />
          </mxGeometry>
        </mxCell>
        <mxCell id="fp4rHpeMfnlgInjq3aHg-119" value="&lt;font style=&quot;font-size: 15px;&quot;&gt;time&lt;/font&gt;" style="ellipse;whiteSpace=wrap;html=1;" parent="1" vertex="1">
          <mxGeometry x="40" y="1031" width="110" height="70" as="geometry" />
        </mxCell>
        <mxCell id="fp4rHpeMfnlgInjq3aHg-120" value="" style="endArrow=none;html=1;rounded=0;entryX=0;entryY=0.5;entryDx=0;entryDy=0;exitX=1;exitY=0.5;exitDx=0;exitDy=0;exitPerimeter=0;" parent="1" source="fp4rHpeMfnlgInjq3aHg-115" target="fp4rHpeMfnlgInjq3aHg-119" edge="1">
          <mxGeometry width="50" height="50" relative="1" as="geometry">
            <mxPoint x="20" y="1116" as="sourcePoint" />
            <mxPoint x="170" y="1216" as="targetPoint" />
          </mxGeometry>
        </mxCell>
        <mxCell id="fp4rHpeMfnlgInjq3aHg-121" value="&lt;font style=&quot;font-size: 15px;&quot;&gt;start_date&lt;/font&gt;" style="ellipse;whiteSpace=wrap;html=1;" parent="1" vertex="1">
          <mxGeometry x="50" y="1126" width="110" height="70" as="geometry" />
        </mxCell>
        <mxCell id="fp4rHpeMfnlgInjq3aHg-122" value="" style="endArrow=none;html=1;rounded=0;entryX=0;entryY=0.5;entryDx=0;entryDy=0;exitX=0;exitY=0;exitDx=120;exitDy=52.5;exitPerimeter=0;" parent="1" source="fp4rHpeMfnlgInjq3aHg-115" target="fp4rHpeMfnlgInjq3aHg-121" edge="1">
          <mxGeometry width="50" height="50" relative="1" as="geometry">
            <mxPoint x="10" y="1216" as="sourcePoint" />
            <mxPoint x="180" y="1311" as="targetPoint" />
          </mxGeometry>
        </mxCell>
        <mxCell id="fp4rHpeMfnlgInjq3aHg-123" value="&lt;font style=&quot;font-size: 15px;&quot;&gt;end_date&lt;/font&gt;" style="ellipse;whiteSpace=wrap;html=1;" parent="1" vertex="1">
          <mxGeometry x="30" y="1206" width="110" height="70" as="geometry" />
        </mxCell>
        <mxCell id="fp4rHpeMfnlgInjq3aHg-124" value="" style="endArrow=none;html=1;rounded=0;entryX=0;entryY=0.5;entryDx=0;entryDy=0;exitX=0.89;exitY=1.023;exitDx=0;exitDy=0;exitPerimeter=0;" parent="1" source="fp4rHpeMfnlgInjq3aHg-115" target="fp4rHpeMfnlgInjq3aHg-123" edge="1">
          <mxGeometry width="50" height="50" relative="1" as="geometry">
            <mxPoint x="-10" y="1296" as="sourcePoint" />
            <mxPoint x="160" y="1391" as="targetPoint" />
          </mxGeometry>
        </mxCell>
        <mxCell id="fp4rHpeMfnlgInjq3aHg-125" value="&lt;font style=&quot;font-size: 15px;&quot;&gt;salary&lt;/font&gt;" style="ellipse;whiteSpace=wrap;html=1;" parent="1" vertex="1">
          <mxGeometry x="-90" y="1236" width="110" height="70" as="geometry" />
        </mxCell>
        <mxCell id="fp4rHpeMfnlgInjq3aHg-126" value="" style="endArrow=none;html=1;rounded=0;entryX=0.5;entryY=0;entryDx=0;entryDy=0;exitX=0.67;exitY=0.989;exitDx=0;exitDy=0;exitPerimeter=0;" parent="1" source="fp4rHpeMfnlgInjq3aHg-115" target="fp4rHpeMfnlgInjq3aHg-125" edge="1">
          <mxGeometry width="50" height="50" relative="1" as="geometry">
            <mxPoint x="-130" y="1326" as="sourcePoint" />
            <mxPoint x="40" y="1421" as="targetPoint" />
          </mxGeometry>
        </mxCell>
        <mxCell id="fp4rHpeMfnlgInjq3aHg-129" value="&lt;span style=&quot;font-size: 15px;&quot;&gt;location&lt;/span&gt;" style="ellipse;whiteSpace=wrap;html=1;" parent="1" vertex="1">
          <mxGeometry x="-210" y="1206" width="110" height="70" as="geometry" />
        </mxCell>
        <mxCell id="fp4rHpeMfnlgInjq3aHg-130" value="" style="endArrow=none;html=1;rounded=0;entryX=1;entryY=0;entryDx=0;entryDy=0;exitX=0.5;exitY=1;exitDx=0;exitDy=0;exitPerimeter=0;" parent="1" source="fp4rHpeMfnlgInjq3aHg-115" target="fp4rHpeMfnlgInjq3aHg-129" edge="1">
          <mxGeometry width="50" height="50" relative="1" as="geometry">
            <mxPoint x="-250" y="1296" as="sourcePoint" />
            <mxPoint x="-80" y="1391" as="targetPoint" />
          </mxGeometry>
        </mxCell>
        <mxCell id="fp4rHpeMfnlgInjq3aHg-136" value="allocate" style="rhombus;whiteSpace=wrap;html=1;" parent="1" vertex="1">
          <mxGeometry x="-322.5" y="1091" width="80" height="40" as="geometry" />
        </mxCell>
        <mxCell id="fp4rHpeMfnlgInjq3aHg-137" value="" style="rhombus;whiteSpace=wrap;html=1;fillColor=none;" parent="1" vertex="1">
          <mxGeometry x="-330" y="1086" width="95" height="50" as="geometry" />
        </mxCell>
        <mxCell id="fp4rHpeMfnlgInjq3aHg-138" value="" style="endArrow=none;html=1;rounded=0;entryX=0;entryY=0.5;entryDx=0;entryDy=0;exitX=0.993;exitY=0.411;exitDx=0;exitDy=0;exitPerimeter=0;" parent="1" source="fp4rHpeMfnlgInjq3aHg-142" target="fp4rHpeMfnlgInjq3aHg-137" edge="1">
          <mxGeometry width="50" height="50" relative="1" as="geometry">
            <mxPoint x="-420" y="1111" as="sourcePoint" />
            <mxPoint x="-345" y="961" as="targetPoint" />
          </mxGeometry>
        </mxCell>
        <mxCell id="fp4rHpeMfnlgInjq3aHg-139" value="" style="shape=link;html=1;rounded=0;entryX=-0.027;entryY=0.382;entryDx=0;entryDy=0;exitX=1;exitY=0.5;exitDx=0;exitDy=0;entryPerimeter=0;" parent="1" source="fp4rHpeMfnlgInjq3aHg-137" target="fp4rHpeMfnlgInjq3aHg-115" edge="1">
          <mxGeometry relative="1" as="geometry">
            <mxPoint x="-285" y="1045.6" as="sourcePoint" />
            <mxPoint x="-210" y="1146" as="targetPoint" />
          </mxGeometry>
        </mxCell>
        <mxCell id="fp4rHpeMfnlgInjq3aHg-140" value="1" style="resizable=0;html=1;whiteSpace=wrap;align=right;verticalAlign=bottom;" parent="fp4rHpeMfnlgInjq3aHg-139" connectable="0" vertex="1">
          <mxGeometry x="1" relative="1" as="geometry">
            <mxPoint x="-52" y="-7" as="offset" />
          </mxGeometry>
        </mxCell>
        <mxCell id="fp4rHpeMfnlgInjq3aHg-141" value="1" style="resizable=0;html=1;whiteSpace=wrap;align=right;verticalAlign=bottom;" parent="1" connectable="0" vertex="1">
          <mxGeometry x="-359.99956521739125" y="1106.0039130434784" as="geometry" />
        </mxCell>
        <mxCell id="fp4rHpeMfnlgInjq3aHg-142" value="" style="verticalLabelPosition=bottom;verticalAlign=top;html=1;shape=mxgraph.basic.frame;dx=10;whiteSpace=wrap;" parent="1" vertex="1">
          <mxGeometry x="-647.5" y="1086" width="115" height="70" as="geometry" />
        </mxCell>
        <mxCell id="fp4rHpeMfnlgInjq3aHg-143" value="APPLICATION" style="text;html=1;align=center;verticalAlign=middle;resizable=0;points=[];autosize=1;strokeColor=none;fillColor=none;" parent="1" vertex="1">
          <mxGeometry x="-640" y="1106" width="100" height="30" as="geometry" />
        </mxCell>
        <mxCell id="fp4rHpeMfnlgInjq3aHg-144" value="application_&lt;div&gt;status&lt;/div&gt;" style="ellipse;whiteSpace=wrap;html=1;" parent="1" vertex="1">
          <mxGeometry x="-650" y="1006" width="110" height="70" as="geometry" />
        </mxCell>
        <mxCell id="fp4rHpeMfnlgInjq3aHg-145" value="" style="endArrow=none;html=1;rounded=0;entryX=0.5;entryY=1;entryDx=0;entryDy=0;exitX=0.45;exitY=-0.008;exitDx=0;exitDy=0;exitPerimeter=0;" parent="1" source="fp4rHpeMfnlgInjq3aHg-142" target="fp4rHpeMfnlgInjq3aHg-144" edge="1">
          <mxGeometry width="50" height="50" relative="1" as="geometry">
            <mxPoint x="-547.5" y="1116" as="sourcePoint" />
            <mxPoint x="-482.5" y="1196" as="targetPoint" />
          </mxGeometry>
        </mxCell>
        <mxCell id="CRGoJ_RwvryH_V1D5sU0-1" value="apply" style="rhombus;whiteSpace=wrap;html=1;" vertex="1" parent="1">
          <mxGeometry x="-922.5" y="986" width="80" height="40" as="geometry" />
        </mxCell>
        <mxCell id="CRGoJ_RwvryH_V1D5sU0-2" value="" style="rhombus;whiteSpace=wrap;html=1;fillColor=none;" vertex="1" parent="1">
          <mxGeometry x="-930" y="981" width="95" height="50" as="geometry" />
        </mxCell>
        <mxCell id="CRGoJ_RwvryH_V1D5sU0-3" value="" style="endArrow=none;html=1;rounded=0;entryX=0;entryY=0.5;entryDx=0;entryDy=0;exitX=1;exitY=1;exitDx=0;exitDy=0;exitPerimeter=0;" edge="1" parent="1" target="CRGoJ_RwvryH_V1D5sU0-2" source="CRGoJ_RwvryH_V1D5sU0-7">
          <mxGeometry width="50" height="50" relative="1" as="geometry">
            <mxPoint x="-1040" y="906" as="sourcePoint" />
            <mxPoint x="-999" y="851" as="targetPoint" />
          </mxGeometry>
        </mxCell>
        <mxCell id="CRGoJ_RwvryH_V1D5sU0-4" value="" style="shape=link;html=1;rounded=0;exitX=1;exitY=0.5;exitDx=0;exitDy=0;entryX=0;entryY=0;entryDx=0;entryDy=0;entryPerimeter=0;" edge="1" parent="1" source="CRGoJ_RwvryH_V1D5sU0-2" target="fp4rHpeMfnlgInjq3aHg-142">
          <mxGeometry relative="1" as="geometry">
            <mxPoint x="-939" y="935.6" as="sourcePoint" />
            <mxPoint x="-700" y="1100" as="targetPoint" />
          </mxGeometry>
        </mxCell>
        <mxCell id="CRGoJ_RwvryH_V1D5sU0-5" value="1" style="resizable=0;html=1;whiteSpace=wrap;align=right;verticalAlign=bottom;" connectable="0" vertex="1" parent="CRGoJ_RwvryH_V1D5sU0-4">
          <mxGeometry x="1" relative="1" as="geometry">
            <mxPoint x="-52" y="-30" as="offset" />
          </mxGeometry>
        </mxCell>
        <mxCell id="CRGoJ_RwvryH_V1D5sU0-6" value="1" style="resizable=0;html=1;whiteSpace=wrap;align=right;verticalAlign=bottom;" connectable="0" vertex="1" parent="1">
          <mxGeometry x="-929.9995652173913" y="991.0039130434784" as="geometry" />
        </mxCell>
        <mxCell id="CRGoJ_RwvryH_V1D5sU0-7" value="" style="verticalLabelPosition=bottom;verticalAlign=top;html=1;shape=mxgraph.basic.frame;dx=10;whiteSpace=wrap;" vertex="1" parent="1">
          <mxGeometry x="-1169" y="826" width="120" height="70" as="geometry" />
        </mxCell>
        <mxCell id="CRGoJ_RwvryH_V1D5sU0-8" value="ALLOCATION" style="text;html=1;align=center;verticalAlign=middle;resizable=0;points=[];autosize=1;strokeColor=none;fillColor=none;" vertex="1" parent="1">
          <mxGeometry x="-1159" y="846" width="100" height="30" as="geometry" />
        </mxCell>
        <mxCell id="CRGoJ_RwvryH_V1D5sU0-9" value="&lt;font style=&quot;font-size: 15px;&quot;&gt;district&lt;/font&gt;" style="ellipse;whiteSpace=wrap;html=1;" vertex="1" parent="1">
          <mxGeometry x="-1380" y="806" width="110" height="70" as="geometry" />
        </mxCell>
        <mxCell id="CRGoJ_RwvryH_V1D5sU0-10" value="" style="endArrow=none;html=1;rounded=0;entryX=1;entryY=0.5;entryDx=0;entryDy=0;exitX=0;exitY=0.5;exitDx=0;exitDy=0;exitPerimeter=0;" edge="1" parent="1" source="CRGoJ_RwvryH_V1D5sU0-7" target="CRGoJ_RwvryH_V1D5sU0-9">
          <mxGeometry width="50" height="50" relative="1" as="geometry">
            <mxPoint x="-1064" y="856" as="sourcePoint" />
            <mxPoint x="-999" y="936" as="targetPoint" />
          </mxGeometry>
        </mxCell>
        <mxCell id="CRGoJ_RwvryH_V1D5sU0-11" value="&lt;font style=&quot;font-size: 15px;&quot;&gt;time&lt;/font&gt;" style="ellipse;whiteSpace=wrap;html=1;" vertex="1" parent="1">
          <mxGeometry x="-1320" y="726" width="110" height="70" as="geometry" />
        </mxCell>
        <mxCell id="CRGoJ_RwvryH_V1D5sU0-12" value="" style="endArrow=none;html=1;rounded=0;exitX=0.117;exitY=-0.032;exitDx=0;exitDy=0;exitPerimeter=0;entryX=1;entryY=1;entryDx=0;entryDy=0;" edge="1" parent="1" source="CRGoJ_RwvryH_V1D5sU0-7" target="CRGoJ_RwvryH_V1D5sU0-11">
          <mxGeometry width="50" height="50" relative="1" as="geometry">
            <mxPoint x="-1029" y="856" as="sourcePoint" />
            <mxPoint x="-1320" y="761" as="targetPoint" />
          </mxGeometry>
        </mxCell>
        <mxCell id="CRGoJ_RwvryH_V1D5sU0-13" value="&lt;font style=&quot;font-size: 15px;&quot;&gt;student_type&lt;/font&gt;" style="ellipse;whiteSpace=wrap;html=1;" vertex="1" parent="1">
          <mxGeometry x="-999" y="866" width="110" height="70" as="geometry" />
        </mxCell>
        <mxCell id="CRGoJ_RwvryH_V1D5sU0-14" value="" style="endArrow=none;html=1;rounded=0;entryX=0;entryY=0.5;entryDx=0;entryDy=0;exitX=0;exitY=0;exitDx=120;exitDy=52.5;exitPerimeter=0;" edge="1" parent="1" source="CRGoJ_RwvryH_V1D5sU0-7" target="CRGoJ_RwvryH_V1D5sU0-13">
          <mxGeometry width="50" height="50" relative="1" as="geometry">
            <mxPoint x="-1039" y="956" as="sourcePoint" />
            <mxPoint x="-869" y="1051" as="targetPoint" />
          </mxGeometry>
        </mxCell>
        <mxCell id="CRGoJ_RwvryH_V1D5sU0-17" value="&lt;font style=&quot;font-size: 15px;&quot;&gt;subject_grade&lt;/font&gt;" style="ellipse;whiteSpace=wrap;html=1;" vertex="1" parent="1">
          <mxGeometry x="-1139" y="976" width="110" height="70" as="geometry" />
        </mxCell>
        <mxCell id="CRGoJ_RwvryH_V1D5sU0-18" value="" style="endArrow=none;html=1;rounded=0;entryX=0.5;entryY=0;entryDx=0;entryDy=0;exitX=0.67;exitY=0.989;exitDx=0;exitDy=0;exitPerimeter=0;" edge="1" parent="1" source="CRGoJ_RwvryH_V1D5sU0-7" target="CRGoJ_RwvryH_V1D5sU0-17">
          <mxGeometry width="50" height="50" relative="1" as="geometry">
            <mxPoint x="-1179" y="1066" as="sourcePoint" />
            <mxPoint x="-1009" y="1161" as="targetPoint" />
          </mxGeometry>
        </mxCell>
        <mxCell id="CRGoJ_RwvryH_V1D5sU0-19" value="&lt;span style=&quot;font-size: 15px;&quot;&gt;wage&lt;/span&gt;" style="ellipse;whiteSpace=wrap;html=1;" vertex="1" parent="1">
          <mxGeometry x="-1259" y="946" width="110" height="70" as="geometry" />
        </mxCell>
        <mxCell id="CRGoJ_RwvryH_V1D5sU0-20" value="" style="endArrow=none;html=1;rounded=0;entryX=1;entryY=0;entryDx=0;entryDy=0;exitX=0.5;exitY=1;exitDx=0;exitDy=0;exitPerimeter=0;" edge="1" parent="1" source="CRGoJ_RwvryH_V1D5sU0-7" target="CRGoJ_RwvryH_V1D5sU0-19">
          <mxGeometry width="50" height="50" relative="1" as="geometry">
            <mxPoint x="-1299" y="1036" as="sourcePoint" />
            <mxPoint x="-1129" y="1131" as="targetPoint" />
          </mxGeometry>
        </mxCell>
        <mxCell id="CRGoJ_RwvryH_V1D5sU0-23" value="&lt;font style=&quot;font-size: 15px;&quot;&gt;min_wage&lt;/font&gt;" style="ellipse;whiteSpace=wrap;html=1;" vertex="1" parent="1">
          <mxGeometry x="-1210" y="1071.5" width="110" height="70" as="geometry" />
        </mxCell>
        <mxCell id="CRGoJ_RwvryH_V1D5sU0-24" value="" style="endArrow=none;html=1;rounded=0;entryX=0.5;entryY=0;entryDx=0;entryDy=0;exitX=1;exitY=1;exitDx=0;exitDy=0;" edge="1" parent="1" target="CRGoJ_RwvryH_V1D5sU0-23" source="CRGoJ_RwvryH_V1D5sU0-19">
          <mxGeometry width="50" height="50" relative="1" as="geometry">
            <mxPoint x="-1170" y="1020.5" as="sourcePoint" />
            <mxPoint x="-1090" y="1286.5" as="targetPoint" />
          </mxGeometry>
        </mxCell>
        <mxCell id="CRGoJ_RwvryH_V1D5sU0-25" value="&lt;span style=&quot;font-size: 15px;&quot;&gt;max_wage&lt;/span&gt;" style="ellipse;whiteSpace=wrap;html=1;" vertex="1" parent="1">
          <mxGeometry x="-1340" y="1071.5" width="110" height="70" as="geometry" />
        </mxCell>
        <mxCell id="CRGoJ_RwvryH_V1D5sU0-26" value="" style="endArrow=none;html=1;rounded=0;entryX=0.5;entryY=0;entryDx=0;entryDy=0;exitX=0;exitY=1;exitDx=0;exitDy=0;" edge="1" parent="1" target="CRGoJ_RwvryH_V1D5sU0-25" source="CRGoJ_RwvryH_V1D5sU0-19">
          <mxGeometry width="50" height="50" relative="1" as="geometry">
            <mxPoint x="-1190" y="1021.5" as="sourcePoint" />
            <mxPoint x="-1210" y="1256.5" as="targetPoint" />
          </mxGeometry>
        </mxCell>
        <mxCell id="CRGoJ_RwvryH_V1D5sU0-27" value="&lt;span style=&quot;font-size: 15px;&quot;&gt;online&lt;/span&gt;" style="ellipse;whiteSpace=wrap;html=1;" vertex="1" parent="1">
          <mxGeometry x="-1380" y="906.5" width="110" height="70" as="geometry" />
        </mxCell>
        <mxCell id="CRGoJ_RwvryH_V1D5sU0-28" value="" style="endArrow=none;html=1;rounded=0;entryX=1;entryY=0.5;entryDx=0;entryDy=0;exitX=0;exitY=1;exitDx=0;exitDy=0;exitPerimeter=0;" edge="1" parent="1" target="CRGoJ_RwvryH_V1D5sU0-27" source="CRGoJ_RwvryH_V1D5sU0-7">
          <mxGeometry width="50" height="50" relative="1" as="geometry">
            <mxPoint x="-1283" y="841" as="sourcePoint" />
            <mxPoint x="-1250" y="1091.5" as="targetPoint" />
          </mxGeometry>
        </mxCell>
        <mxCell id="CRGoJ_RwvryH_V1D5sU0-29" value="requires" style="rhombus;whiteSpace=wrap;html=1;" vertex="1" parent="1">
          <mxGeometry x="-1149" y="682.5" width="80" height="40" as="geometry" />
        </mxCell>
        <mxCell id="CRGoJ_RwvryH_V1D5sU0-30" value="" style="rhombus;whiteSpace=wrap;html=1;fillColor=none;" vertex="1" parent="1">
          <mxGeometry x="-1156.5" y="677.5" width="95" height="50" as="geometry" />
        </mxCell>
        <mxCell id="CRGoJ_RwvryH_V1D5sU0-31" value="" style="endArrow=none;html=1;rounded=0;entryX=0.5;entryY=0;entryDx=0;entryDy=0;exitX=0.5;exitY=1;exitDx=0;exitDy=0;" edge="1" parent="1" target="CRGoJ_RwvryH_V1D5sU0-30" source="CRGoJ_RwvryH_V1D5sU0-51">
          <mxGeometry width="50" height="50" relative="1" as="geometry">
            <mxPoint x="-890" y="676" as="sourcePoint" />
            <mxPoint x="-896.5" y="713.5" as="targetPoint" />
          </mxGeometry>
        </mxCell>
        <mxCell id="CRGoJ_RwvryH_V1D5sU0-32" value="" style="shape=link;html=1;rounded=0;exitX=0.5;exitY=1;exitDx=0;exitDy=0;entryX=0.5;entryY=0;entryDx=0;entryDy=0;entryPerimeter=0;" edge="1" parent="1" source="CRGoJ_RwvryH_V1D5sU0-30" target="CRGoJ_RwvryH_V1D5sU0-7">
          <mxGeometry relative="1" as="geometry">
            <mxPoint x="-1049" y="761" as="sourcePoint" />
            <mxPoint x="-980" y="836" as="targetPoint" />
          </mxGeometry>
        </mxCell>
        <mxCell id="CRGoJ_RwvryH_V1D5sU0-33" value="1" style="resizable=0;html=1;whiteSpace=wrap;align=right;verticalAlign=bottom;" connectable="0" vertex="1" parent="CRGoJ_RwvryH_V1D5sU0-32">
          <mxGeometry x="1" relative="1" as="geometry">
            <mxPoint x="-5" y="-30" as="offset" />
          </mxGeometry>
        </mxCell>
        <mxCell id="CRGoJ_RwvryH_V1D5sU0-34" value="1" style="resizable=0;html=1;whiteSpace=wrap;align=right;verticalAlign=bottom;" connectable="0" vertex="1" parent="1">
          <mxGeometry x="-998.9995652173913" y="690.0039130434784" as="geometry" />
        </mxCell>
        <mxCell id="CRGoJ_RwvryH_V1D5sU0-36" value="apply" style="rhombus;whiteSpace=wrap;html=1;" vertex="1" parent="1">
          <mxGeometry x="-327.5" y="888.5" width="80" height="40" as="geometry" />
        </mxCell>
        <mxCell id="CRGoJ_RwvryH_V1D5sU0-37" value="" style="rhombus;whiteSpace=wrap;html=1;fillColor=none;" vertex="1" parent="1">
          <mxGeometry x="-335" y="883.5" width="95" height="50" as="geometry" />
        </mxCell>
        <mxCell id="CRGoJ_RwvryH_V1D5sU0-38" value="" style="endArrow=none;html=1;rounded=0;entryX=1;entryY=0.5;entryDx=0;entryDy=0;exitX=0;exitY=1;exitDx=0;exitDy=0;" edge="1" parent="1" target="CRGoJ_RwvryH_V1D5sU0-37" source="fp4rHpeMfnlgInjq3aHg-23">
          <mxGeometry width="50" height="50" relative="1" as="geometry">
            <mxPoint x="-200" y="836.5" as="sourcePoint" />
            <mxPoint x="-206.5" y="874" as="targetPoint" />
          </mxGeometry>
        </mxCell>
        <mxCell id="CRGoJ_RwvryH_V1D5sU0-39" value="" style="shape=link;html=1;rounded=0;exitX=0;exitY=0.5;exitDx=0;exitDy=0;entryX=1;entryY=0;entryDx=0;entryDy=0;entryPerimeter=0;" edge="1" parent="1" source="CRGoJ_RwvryH_V1D5sU0-37" target="fp4rHpeMfnlgInjq3aHg-142">
          <mxGeometry relative="1" as="geometry">
            <mxPoint x="-359" y="921.5" as="sourcePoint" />
            <mxPoint x="-359" y="986.5" as="targetPoint" />
          </mxGeometry>
        </mxCell>
        <mxCell id="CRGoJ_RwvryH_V1D5sU0-40" value="1" style="resizable=0;html=1;whiteSpace=wrap;align=right;verticalAlign=bottom;" connectable="0" vertex="1" parent="CRGoJ_RwvryH_V1D5sU0-39">
          <mxGeometry x="1" relative="1" as="geometry">
            <mxPoint x="75" y="-95" as="offset" />
          </mxGeometry>
        </mxCell>
        <mxCell id="CRGoJ_RwvryH_V1D5sU0-41" value="1" style="resizable=0;html=1;whiteSpace=wrap;align=right;verticalAlign=bottom;" connectable="0" vertex="1" parent="1">
          <mxGeometry x="-222.99956521739125" y="883.5039130434784" as="geometry" />
        </mxCell>
        <mxCell id="CRGoJ_RwvryH_V1D5sU0-44" value="requires" style="rhombus;whiteSpace=wrap;html=1;" vertex="1" parent="1">
          <mxGeometry x="-77.5" y="472" width="80" height="40" as="geometry" />
        </mxCell>
        <mxCell id="CRGoJ_RwvryH_V1D5sU0-45" value="" style="rhombus;whiteSpace=wrap;html=1;fillColor=none;" vertex="1" parent="1">
          <mxGeometry x="-85" y="467" width="95" height="50" as="geometry" />
        </mxCell>
        <mxCell id="CRGoJ_RwvryH_V1D5sU0-46" value="" style="endArrow=none;html=1;rounded=0;entryX=0.5;entryY=0;entryDx=0;entryDy=0;exitX=0.614;exitY=1.028;exitDx=0;exitDy=0;exitPerimeter=0;" edge="1" parent="1" target="CRGoJ_RwvryH_V1D5sU0-45" source="fp4rHpeMfnlgInjq3aHg-1">
          <mxGeometry width="50" height="50" relative="1" as="geometry">
            <mxPoint x="50" y="420" as="sourcePoint" />
            <mxPoint x="43.5" y="457.5" as="targetPoint" />
          </mxGeometry>
        </mxCell>
        <mxCell id="CRGoJ_RwvryH_V1D5sU0-47" value="" style="shape=link;html=1;rounded=0;exitX=0.5;exitY=1;exitDx=0;exitDy=0;entryX=0.577;entryY=-0.017;entryDx=0;entryDy=0;entryPerimeter=0;" edge="1" parent="1" source="CRGoJ_RwvryH_V1D5sU0-45" target="fp4rHpeMfnlgInjq3aHg-23">
          <mxGeometry relative="1" as="geometry">
            <mxPoint x="-109" y="505" as="sourcePoint" />
            <mxPoint x="-109" y="570" as="targetPoint" />
          </mxGeometry>
        </mxCell>
        <mxCell id="CRGoJ_RwvryH_V1D5sU0-48" value="1" style="resizable=0;html=1;whiteSpace=wrap;align=right;verticalAlign=bottom;" connectable="0" vertex="1" parent="CRGoJ_RwvryH_V1D5sU0-47">
          <mxGeometry x="1" relative="1" as="geometry">
            <mxPoint x="15" y="-100" as="offset" />
          </mxGeometry>
        </mxCell>
        <mxCell id="CRGoJ_RwvryH_V1D5sU0-49" value="1" style="resizable=0;html=1;whiteSpace=wrap;align=right;verticalAlign=bottom;" connectable="0" vertex="1" parent="1">
          <mxGeometry x="-19.99956521739125" y="440.0039130434784" as="geometry" />
        </mxCell>
        <mxCell id="CRGoJ_RwvryH_V1D5sU0-51" value="&lt;font style=&quot;font-size: 18px;&quot;&gt;TUTOR&lt;/font&gt;" style="rounded=0;whiteSpace=wrap;html=1;" vertex="1" parent="1">
          <mxGeometry x="-1169" y="536" width="120" height="60" as="geometry" />
        </mxCell>
        <mxCell id="CRGoJ_RwvryH_V1D5sU0-53" value="&lt;font style=&quot;font-size: 15px;&quot;&gt;tutor_name&lt;/font&gt;" style="ellipse;whiteSpace=wrap;html=1;" vertex="1" parent="1">
          <mxGeometry x="-1029" y="457" width="110" height="70" as="geometry" />
        </mxCell>
        <mxCell id="CRGoJ_RwvryH_V1D5sU0-54" value="" style="endArrow=none;html=1;rounded=0;entryX=0;entryY=0.5;entryDx=0;entryDy=0;exitX=0.75;exitY=0;exitDx=0;exitDy=0;" edge="1" parent="1" source="CRGoJ_RwvryH_V1D5sU0-51" target="CRGoJ_RwvryH_V1D5sU0-53">
          <mxGeometry width="50" height="50" relative="1" as="geometry">
            <mxPoint x="-715" y="647.5" as="sourcePoint" />
            <mxPoint x="-650" y="717.5" as="targetPoint" />
          </mxGeometry>
        </mxCell>
        <mxCell id="CRGoJ_RwvryH_V1D5sU0-56" value="&lt;font style=&quot;font-size: 15px;&quot;&gt;status&lt;/font&gt;" style="ellipse;whiteSpace=wrap;html=1;" vertex="1" parent="1">
          <mxGeometry x="-964" y="550" width="110" height="70" as="geometry" />
        </mxCell>
        <mxCell id="CRGoJ_RwvryH_V1D5sU0-57" value="" style="endArrow=none;html=1;rounded=0;entryX=0;entryY=0.5;entryDx=0;entryDy=0;exitX=1;exitY=0.5;exitDx=0;exitDy=0;" edge="1" parent="1" target="CRGoJ_RwvryH_V1D5sU0-56" source="CRGoJ_RwvryH_V1D5sU0-51">
          <mxGeometry width="50" height="50" relative="1" as="geometry">
            <mxPoint x="-747.5" y="695.5" as="sourcePoint" />
            <mxPoint x="-597.5" y="795" as="targetPoint" />
          </mxGeometry>
        </mxCell>
        <mxCell id="CRGoJ_RwvryH_V1D5sU0-58" value="&lt;font style=&quot;font-size: 15px;&quot;&gt;&lt;u&gt;tutor_id&lt;/u&gt;&lt;/font&gt;" style="ellipse;whiteSpace=wrap;html=1;" vertex="1" parent="1">
          <mxGeometry x="-922.5" y="629" width="110" height="70" as="geometry" />
        </mxCell>
        <mxCell id="CRGoJ_RwvryH_V1D5sU0-59" value="" style="endArrow=none;html=1;rounded=0;entryX=0;entryY=0.5;entryDx=0;entryDy=0;exitX=1;exitY=1;exitDx=0;exitDy=0;" edge="1" parent="1" target="CRGoJ_RwvryH_V1D5sU0-58" source="CRGoJ_RwvryH_V1D5sU0-51">
          <mxGeometry width="50" height="50" relative="1" as="geometry">
            <mxPoint x="-777.5" y="777" as="sourcePoint" />
            <mxPoint x="-627.5" y="876.5" as="targetPoint" />
          </mxGeometry>
        </mxCell>
        <mxCell id="CRGoJ_RwvryH_V1D5sU0-60" value="&lt;font style=&quot;font-size: 15px;&quot;&gt;degree&lt;/font&gt;" style="ellipse;whiteSpace=wrap;html=1;" vertex="1" parent="1">
          <mxGeometry x="-1070" y="636" width="110" height="70" as="geometry" />
        </mxCell>
        <mxCell id="CRGoJ_RwvryH_V1D5sU0-61" value="" style="endArrow=none;html=1;rounded=0;entryX=0.5;entryY=0;entryDx=0;entryDy=0;exitX=0.83;exitY=1.006;exitDx=0;exitDy=0;exitPerimeter=0;" edge="1" parent="1" target="CRGoJ_RwvryH_V1D5sU0-60" source="CRGoJ_RwvryH_V1D5sU0-51">
          <mxGeometry width="50" height="50" relative="1" as="geometry">
            <mxPoint x="-896.5" y="818" as="sourcePoint" />
            <mxPoint x="-746.5" y="917.5" as="targetPoint" />
          </mxGeometry>
        </mxCell>
        <mxCell id="CRGoJ_RwvryH_V1D5sU0-62" value="&lt;font style=&quot;font-size: 15px;&quot;&gt;age&lt;/font&gt;" style="ellipse;whiteSpace=wrap;html=1;" vertex="1" parent="1">
          <mxGeometry x="-1320" y="559" width="110" height="70" as="geometry" />
        </mxCell>
        <mxCell id="CRGoJ_RwvryH_V1D5sU0-63" value="" style="endArrow=none;html=1;rounded=0;entryX=1;entryY=0.5;entryDx=0;entryDy=0;exitX=0;exitY=0.5;exitDx=0;exitDy=0;" edge="1" parent="1" target="CRGoJ_RwvryH_V1D5sU0-62" source="CRGoJ_RwvryH_V1D5sU0-51">
          <mxGeometry width="50" height="50" relative="1" as="geometry">
            <mxPoint x="-1105" y="687.5" as="sourcePoint" />
            <mxPoint x="-955" y="787" as="targetPoint" />
          </mxGeometry>
        </mxCell>
        <mxCell id="CRGoJ_RwvryH_V1D5sU0-64" value="&lt;font style=&quot;font-size: 15px;&quot;&gt;teacher_&lt;/font&gt;&lt;div&gt;&lt;font style=&quot;font-size: 15px;&quot;&gt;gender&lt;/font&gt;&lt;/div&gt;" style="ellipse;whiteSpace=wrap;html=1;" vertex="1" parent="1">
          <mxGeometry x="-1320" y="466" width="110" height="70" as="geometry" />
        </mxCell>
        <mxCell id="CRGoJ_RwvryH_V1D5sU0-65" value="" style="endArrow=none;html=1;rounded=0;entryX=1;entryY=0.5;entryDx=0;entryDy=0;exitX=0;exitY=0;exitDx=0;exitDy=0;" edge="1" parent="1" target="CRGoJ_RwvryH_V1D5sU0-64" source="CRGoJ_RwvryH_V1D5sU0-51">
          <mxGeometry width="50" height="50" relative="1" as="geometry">
            <mxPoint x="-1120" y="628" as="sourcePoint" />
            <mxPoint x="-970" y="727.5" as="targetPoint" />
          </mxGeometry>
        </mxCell>
        <mxCell id="CRGoJ_RwvryH_V1D5sU0-67" value="has" style="rhombus;whiteSpace=wrap;html=1;" vertex="1" parent="1">
          <mxGeometry x="-1156.5" y="407.5" width="80" height="40" as="geometry" />
        </mxCell>
        <mxCell id="CRGoJ_RwvryH_V1D5sU0-68" value="" style="rhombus;whiteSpace=wrap;html=1;fillColor=none;" vertex="1" parent="1">
          <mxGeometry x="-1164" y="402.5" width="95" height="50" as="geometry" />
        </mxCell>
        <mxCell id="CRGoJ_RwvryH_V1D5sU0-69" value="" style="endArrow=none;html=1;rounded=0;entryX=0.5;entryY=1;entryDx=0;entryDy=0;exitX=0.433;exitY=-0.006;exitDx=0;exitDy=0;exitPerimeter=0;" edge="1" parent="1" target="CRGoJ_RwvryH_V1D5sU0-68" source="CRGoJ_RwvryH_V1D5sU0-51">
          <mxGeometry width="50" height="50" relative="1" as="geometry">
            <mxPoint x="-1116" y="520" as="sourcePoint" />
            <mxPoint x="-761.5" y="483" as="targetPoint" />
          </mxGeometry>
        </mxCell>
        <mxCell id="CRGoJ_RwvryH_V1D5sU0-70" value="" style="shape=link;html=1;rounded=0;exitX=0.5;exitY=0;exitDx=0;exitDy=0;" edge="1" parent="1" source="CRGoJ_RwvryH_V1D5sU0-68">
          <mxGeometry relative="1" as="geometry">
            <mxPoint x="-1188" y="440.5" as="sourcePoint" />
            <mxPoint x="-1116" y="337.5" as="targetPoint" />
          </mxGeometry>
        </mxCell>
        <mxCell id="CRGoJ_RwvryH_V1D5sU0-71" value="1" style="resizable=0;html=1;whiteSpace=wrap;align=right;verticalAlign=bottom;" connectable="0" vertex="1" parent="CRGoJ_RwvryH_V1D5sU0-70">
          <mxGeometry x="1" relative="1" as="geometry">
            <mxPoint x="-12" y="55" as="offset" />
          </mxGeometry>
        </mxCell>
        <mxCell id="CRGoJ_RwvryH_V1D5sU0-72" value="1" style="resizable=0;html=1;whiteSpace=wrap;align=right;verticalAlign=bottom;" connectable="0" vertex="1" parent="1">
          <mxGeometry x="-1127.9995652173911" y="492.5039130434784" as="geometry" />
        </mxCell>
        <mxCell id="CRGoJ_RwvryH_V1D5sU0-74" value="" style="verticalLabelPosition=bottom;verticalAlign=top;html=1;shape=mxgraph.basic.frame;dx=10;whiteSpace=wrap;" vertex="1" parent="1">
          <mxGeometry x="-1160.5" y="280" width="100" height="60" as="geometry" />
        </mxCell>
        <mxCell id="CRGoJ_RwvryH_V1D5sU0-75" value="teacing_&lt;div&gt;experience&lt;/div&gt;" style="text;html=1;align=center;verticalAlign=middle;resizable=0;points=[];autosize=1;strokeColor=none;fillColor=none;" vertex="1" parent="1">
          <mxGeometry x="-1150.5" y="290" width="80" height="40" as="geometry" />
        </mxCell>
        <mxCell id="CRGoJ_RwvryH_V1D5sU0-76" value="&lt;font style=&quot;font-size: 15px;&quot;&gt;subject_grade&lt;/font&gt;" style="ellipse;whiteSpace=wrap;html=1;" vertex="1" parent="1">
          <mxGeometry x="-1234" y="200" width="110" height="70" as="geometry" />
        </mxCell>
        <mxCell id="CRGoJ_RwvryH_V1D5sU0-77" value="" style="endArrow=none;html=1;rounded=0;entryX=0.5;entryY=1;entryDx=0;entryDy=0;exitX=0;exitY=0;exitDx=25;exitDy=0;exitPerimeter=0;" edge="1" parent="1" source="CRGoJ_RwvryH_V1D5sU0-74" target="CRGoJ_RwvryH_V1D5sU0-76">
          <mxGeometry width="50" height="50" relative="1" as="geometry">
            <mxPoint x="-1075.5" y="310" as="sourcePoint" />
            <mxPoint x="-1010.5" y="390" as="targetPoint" />
          </mxGeometry>
        </mxCell>
        <mxCell id="CRGoJ_RwvryH_V1D5sU0-78" value="&lt;font style=&quot;font-size: 15px;&quot;&gt;teaching_&lt;/font&gt;&lt;div&gt;&lt;font style=&quot;font-size: 15px;&quot;&gt;years&lt;/font&gt;&lt;/div&gt;" style="ellipse;whiteSpace=wrap;html=1;" vertex="1" parent="1">
          <mxGeometry x="-1086.5" y="190" width="110" height="70" as="geometry" />
        </mxCell>
        <mxCell id="CRGoJ_RwvryH_V1D5sU0-79" value="" style="endArrow=none;html=1;rounded=0;entryX=0.5;entryY=1;entryDx=0;entryDy=0;exitX=0;exitY=0;exitDx=75;exitDy=0;exitPerimeter=0;" edge="1" parent="1" source="CRGoJ_RwvryH_V1D5sU0-74" target="CRGoJ_RwvryH_V1D5sU0-78">
          <mxGeometry width="50" height="50" relative="1" as="geometry">
            <mxPoint x="-1040.5" y="310" as="sourcePoint" />
            <mxPoint x="-890.5" y="410" as="targetPoint" />
          </mxGeometry>
        </mxCell>
        <mxCell id="CRGoJ_RwvryH_V1D5sU0-88" value="1" style="resizable=0;html=1;whiteSpace=wrap;align=right;verticalAlign=bottom;" connectable="0" vertex="1" parent="1">
          <mxGeometry x="-1094" y="805.9615384615386" as="geometry">
            <mxPoint x="-22" y="-138" as="offset" />
          </mxGeometry>
        </mxCell>
      </root>
    </mxGraphModel>
  </diagram>
</mxfile>
